<svg 
    width="300" 
    height="300" 
    viewBox="0 0 300 300" 
    fill="none" 
    xmlns="http://www.w3.org/2000/svg">

    <rect 
        width="300" 
        height="300" 
        rx="150" 
        fill="url(#paint0_linear_2056_61)"/>
    
    <path 
        d="M147.4 240L135 233.4C138.2 227.667 141.6 223.133 145.2 219.8C148.8 216.333 152.267 213.533 155.6 211.4C156.933 210.6 157.6 209.933 157.6 209.4C157.6 208.867 156.4 208.133 154 207.2C151.733 206.267 149.467 205.4 147.2 204.6C145.067 203.667 143.267 202.4 141.8 200.8C140.467 199.2 139.8 196.933 139.8 194C139.8 191.333 140.4 189.133 141.6 187.4C142.933 185.667 144.333 184.333 145.8 183.4C147.4 182.333 148.6 181.6 149.4 181.2C150.867 180.533 152.2 179.933 153.4 179.4C154.6 178.733 155.2 178.2 155.2 177.8C155.2 177.267 154 176.533 151.6 175.6C147.733 174.133 144.6 172.133 142.2 169.6C139.8 167.067 138.6 163.8 138.6 159.8C138.6 153.8 140 148.333 142.8 143.4C137.467 145.933 131.667 148.267 125.4 150.4C119.267 152.4 112.8 153.4 106 153.4C97.3333 153.4 89.9333 151.867 83.8 148.8C77.8 145.733 71.7333 141.6 65.6 136.4L74.6 125.6C79.1333 129.867 83.8667 133.333 88.8 136C93.8667 138.533 99.7333 139.8 106.4 139.8C112 139.8 118.533 138.4 126 135.6C133.6 132.667 140.8 129.4 147.6 125.8C158 120.333 167.2 116.467 175.2 114.2C183.333 111.933 190.733 110.8 197.4 110.8C204.867 110.8 211.533 111.667 217.4 113.4C223.267 115 229.267 117.467 235.4 120.8L229.2 133C223.867 130.2 218.8 128.067 214 126.6C209.333 125.133 204.067 124.4 198.2 124.4C188.733 124.4 180.6 125.933 173.8 129C167.133 132.067 162 136.067 158.4 141C154.933 145.933 153.2 151.267 153.2 157C153.2 159.133 153.933 160.8 155.4 162C157 163.067 159.2 164.133 162 165.2C165.867 166.667 168.733 168.333 170.6 170.2C172.6 171.933 173.6 174.133 173.6 176.8C173.6 179.467 172.067 181.867 169 184C165.933 186 163 187.867 160.2 189.6C158.467 190.667 157.333 191.533 156.8 192.2C156.267 192.733 156 193.133 156 193.4C156 193.8 156.6 194.267 157.8 194.8C159 195.2 160.267 195.733 161.6 196.4C165.067 197.867 168.267 199.4 171.2 201C174.133 202.467 175.6 204.8 175.6 208C175.6 210.933 174.667 213.533 172.8 215.8C170.933 217.933 168.267 220.133 164.8 222.4C161.867 224.267 158.933 226.6 156 229.4C153.067 232.067 150.2 235.6 147.4 240ZM138.236 97.4C135.303 97.4 132.836 96.4667 130.836 94.6C128.836 92.7333 127.836 89.9333 127.836 86.2C127.836 82.3333 128.836 79.5333 130.836 77.8C132.836 75.9333 135.303 75 138.236 75C140.903 75 143.303 75.9333 145.436 77.8C147.436 79.5333 148.436 82.3333 148.436 86.2C148.436 89.9333 147.436 92.7333 145.436 94.6C143.303 96.4667 140.903 97.4 138.236 97.4Z" 
        fill="url(#paint1_linear_2056_61)"/>

    <defs>
        <linearGradient 
            id="paint0_linear_2056_61" 
            x1="150" 
            y1="0" 
            x2="150" 
            y2="300" 
            gradientUnits="userSpaceOnUse">

            <stop 
                offset="0.19" 
                stop-color="#1D7FFF"/>
            <stop 
                offset="1" 
                stop-color="#004196"/>
        </linearGradient>

        <linearGradient 
            id="paint1_linear_2056_61" 
            x1="150.5" 
            y1="150" 
            x2="150.5" 
            y2="237" 
            gradientUnits="userSpaceOnUse">

            <stop 
                stop-color="white"/>
            <stop 
                offset="1" 
                stop-color="#999999"/>
                
        </linearGradient>
    </defs>
</svg>
